<svg width="21" height="21" viewBox="0 0 21 21" fill="none" xmlns="http://www.w3.org/2000/svg">
<g clip-path="url(#clip0_15_93)">
<path d="M10.9844 20.5C13.6365 20.5 16.1801 19.4464 18.0554 17.5711C19.9308 15.6957 20.9844 13.1522 20.9844 10.5C20.9844 7.84784 19.9308 5.3043 18.0554 3.42893C16.1801 1.55357 13.6365 0.5 10.9844 0.5C8.33221 0.5 5.78867 1.55357 3.91331 3.42893C2.03794 5.3043 0.984375 7.84784 0.984375 10.5C0.984375 13.1522 2.03794 15.6957 3.91331 17.5711C5.78867 19.4464 8.33221 20.5 10.9844 20.5ZM15.3984 8.66406L10.3984 13.6641C10.0313 14.0312 9.4375 14.0312 9.07422 13.6641L6.57422 11.1641C6.20703 10.7969 6.20703 10.2031 6.57422 9.83984C6.94141 9.47656 7.53516 9.47266 7.89844 9.83984L9.73438 11.6758L14.0703 7.33594C14.4375 6.96875 15.0312 6.96875 15.3945 7.33594C15.7578 7.70312 15.7617 8.29687 15.3945 8.66016L15.3984 8.66406Z" fill="#22C55E"/>
</g>
<defs>
<clipPath id="clip0_15_93">
<path d="M0.984375 0.5H20.9844V20.5H0.984375V0.5Z" fill="white"/>
</clipPath>
</defs>
</svg>
