<svg width="18" height="21" viewBox="0 0 18 21" fill="none" xmlns="http://www.w3.org/2000/svg">
<path d="M3.79688 1.75V3H1.92188C0.886719 3 0.046875 3.83984 0.046875 4.875V6.75H17.5469V4.875C17.5469 3.83984 16.707 3 15.6719 3H13.7969V1.75C13.7969 1.05859 13.2383 0.5 12.5469 0.5C11.8555 0.5 11.2969 1.05859 11.2969 1.75V3H6.29688V1.75C6.29688 1.05859 5.73828 0.5 5.04688 0.5C4.35547 0.5 3.79688 1.05859 3.79688 1.75ZM17.5469 8H0.046875V18.625C0.046875 19.6602 0.886719 20.5 1.92188 20.5H15.6719C16.707 20.5 17.5469 19.6602 17.5469 18.625V8Z" fill="#9CA3AF"/>
</svg>
