<svg width="21" height="21" viewBox="0 0 21 21" fill="none" xmlns="http://www.w3.org/2000/svg">
<g clip-path="url(#clip0_15_86)">
<path d="M5.9375 5.08594L4.91797 8H16.3945L15.375 5.08594C15.1992 4.58594 14.7266 4.25 14.1953 4.25H7.11719C6.58594 4.25 6.11328 4.58594 5.9375 5.08594ZM2.20312 8.1875L3.57813 4.26172C4.10547 2.75781 5.52344 1.75 7.11719 1.75H14.1953C15.7891 1.75 17.207 2.75781 17.7344 4.26172L19.1094 8.1875C20.0156 8.5625 20.6562 9.45703 20.6562 10.5V16.125V18C20.6562 18.6914 20.0977 19.25 19.4062 19.25H18.1562C17.4648 19.25 16.9062 18.6914 16.9062 18V16.125H4.40625V18C4.40625 18.6914 3.84766 19.25 3.15625 19.25H1.90625C1.21484 19.25 0.65625 18.6914 0.65625 18V16.125V10.5C0.65625 9.45703 1.29687 8.5625 2.20312 8.1875ZM5.65625 11.75C5.65625 11.4185 5.52455 11.1005 5.29013 10.8661C5.05571 10.6317 4.73777 10.5 4.40625 10.5C4.07473 10.5 3.75679 10.6317 3.52237 10.8661C3.28795 11.1005 3.15625 11.4185 3.15625 11.75C3.15625 12.0815 3.28795 12.3995 3.52237 12.6339C3.75679 12.8683 4.07473 13 4.40625 13C4.73777 13 5.05571 12.8683 5.29013 12.6339C5.52455 12.3995 5.65625 12.0815 5.65625 11.75ZM16.9062 13C17.2378 13 17.5557 12.8683 17.7901 12.6339C18.0246 12.3995 18.1562 12.0815 18.1562 11.75C18.1562 11.4185 18.0246 11.1005 17.7901 10.8661C17.5557 10.6317 17.2378 10.5 16.9062 10.5C16.5747 10.5 16.2568 10.6317 16.0224 10.8661C15.7879 11.1005 15.6562 11.4185 15.6562 11.75C15.6562 12.0815 15.7879 12.3995 16.0224 12.6339C16.2568 12.8683 16.5747 13 16.9062 13Z" fill="#3B82F6"/>
</g>
<defs>
<clipPath id="clip0_15_86">
<path d="M0.65625 0.5H20.6562V20.5H0.65625V0.5Z" fill="white"/>
</clipPath>
</defs>
</svg>
