<svg width="21" height="19" viewBox="0 0 21 19" fill="none" xmlns="http://www.w3.org/2000/svg">
<path d="M3.09375 2C3.09375 1.30859 2.53516 0.75 1.84375 0.75C1.15234 0.75 0.59375 1.30859 0.59375 2V15.125C0.59375 16.8516 1.99219 18.25 3.71875 18.25H19.3438C20.0352 18.25 20.5938 17.6914 20.5938 17C20.5938 16.3086 20.0352 15.75 19.3438 15.75H3.71875C3.375 15.75 3.09375 15.4688 3.09375 15.125V2ZM18.9766 5.38281C19.4648 4.89453 19.4648 4.10156 18.9766 3.61328C18.4883 3.125 17.6953 3.125 17.207 3.61328L13.0938 7.73047L10.8516 5.48828C10.3633 5 9.57031 5 9.08203 5.48828L4.70703 9.86328C4.21875 10.3516 4.21875 11.1445 4.70703 11.6328C5.19531 12.1211 5.98828 12.1211 6.47656 11.6328L9.96875 8.14453L12.2109 10.3867C12.6992 10.875 13.4922 10.875 13.9805 10.3867L18.9805 5.38672L18.9766 5.38281Z" fill="#9CA3AF"/>
</svg>
