<svg width="14" height="16" viewBox="0 0 14 16" fill="none" xmlns="http://www.w3.org/2000/svg">
<path d="M4 0C4.55313 0 5 0.446875 5 1V2H9V1C9 0.446875 9.44687 0 10 0C10.5531 0 11 0.446875 11 1V2H12.5C13.3281 2 14 2.67188 14 3.5V5H0V3.5C0 2.67188 0.671875 2 1.5 2H3V1C3 0.446875 3.44687 0 4 0ZM0 6H14V14.5C14 15.3281 13.3281 16 12.5 16H1.5C0.671875 16 0 15.3281 0 14.5V6ZM9.53125 9.53125C9.825 9.2375 9.825 8.7625 9.53125 8.47188C9.2375 8.18125 8.7625 8.17813 8.47188 8.47188L7.00313 9.94063L5.53438 8.47188C5.24063 8.17813 4.76562 8.17813 4.475 8.47188C4.18437 8.76563 4.18125 9.24062 4.475 9.53125L5.94375 11L4.475 12.4688C4.18125 12.7625 4.18125 13.2375 4.475 13.5281C4.76875 13.8187 5.24375 13.8219 5.53438 13.5281L7.00313 12.0594L8.47188 13.5281C8.76563 13.8219 9.24062 13.8219 9.53125 13.5281C9.82188 13.2344 9.825 12.7594 9.53125 12.4688L8.0625 11L9.53125 9.53125Z" fill="#EF4444"/>
</svg>
