<svg width="15" height="13" viewBox="0 0 15 13" fill="none" xmlns="http://www.w3.org/2000/svg">
<path d="M0.484375 2.375C0.484375 1.40977 1.26914 0.625 2.23438 0.625H12.7344C13.6996 0.625 14.4844 1.40977 14.4844 2.375V11.125C14.4844 12.0902 13.6996 12.875 12.7344 12.875H2.23438C1.26914 12.875 0.484375 12.0902 0.484375 11.125V2.375ZM9.33828 5.28711C9.21523 5.10664 9.01289 5 8.79688 5C8.58086 5 8.37578 5.10664 8.25547 5.28711L5.87656 8.77617L5.15195 7.87109C5.02617 7.71523 4.8375 7.625 4.64062 7.625C4.44375 7.625 4.25234 7.71523 4.1293 7.87109L2.3793 10.0586C2.2207 10.2555 2.19063 10.5262 2.3 10.7531C2.40938 10.9801 2.63906 11.125 2.89062 11.125H5.51562H6.39062H12.0781C12.3215 11.125 12.5457 10.991 12.6578 10.775C12.7699 10.559 12.7562 10.2992 12.6195 10.0996L9.33828 5.28711ZM3.54688 5C3.89497 5 4.22881 4.86172 4.47495 4.61558C4.72109 4.36944 4.85938 4.0356 4.85938 3.6875C4.85938 3.3394 4.72109 3.00556 4.47495 2.75942C4.22881 2.51328 3.89497 2.375 3.54688 2.375C3.19878 2.375 2.86494 2.51328 2.6188 2.75942C2.37266 3.00556 2.23438 3.3394 2.23438 3.6875C2.23438 4.0356 2.37266 4.36944 2.6188 4.61558C2.86494 4.86172 3.19878 5 3.54688 5Z" fill="#374151"/>
</svg>
