<svg width="24" height="21" viewBox="0 0 24 21" fill="none" xmlns="http://www.w3.org/2000/svg">
<path d="M23.2734 10.4805C23.2734 11.1836 22.6875 11.7344 22.0234 11.7344H20.7734L20.8008 17.9922C20.8008 18.0977 20.793 18.2031 20.7812 18.3086V18.9375C20.7812 19.8008 20.082 20.5 19.2188 20.5H18.5938C18.5508 20.5 18.5078 20.5 18.4648 20.4961C18.4102 20.5 18.3555 20.5 18.3008 20.5H17.0312H16.0938C15.2305 20.5 14.5312 19.8008 14.5312 18.9375V18V15.5C14.5312 14.8086 13.9727 14.25 13.2812 14.25H10.7812C10.0898 14.25 9.53125 14.8086 9.53125 15.5V18V18.9375C9.53125 19.8008 8.83203 20.5 7.96875 20.5H7.03125H5.78516C5.72656 20.5 5.66797 20.4961 5.60937 20.4922C5.5625 20.4961 5.51563 20.5 5.46875 20.5H4.84375C3.98047 20.5 3.28125 19.8008 3.28125 18.9375V14.5625C3.28125 14.5273 3.28125 14.4883 3.28516 14.4531V11.7344H2.03125C1.32812 11.7344 0.78125 11.1875 0.78125 10.4805C0.78125 10.1289 0.898438 9.81641 1.17188 9.54297L11.1875 0.8125C11.4609 0.539062 11.7734 0.5 12.0469 0.5C12.3203 0.5 12.6328 0.578125 12.8672 0.773438L22.8437 9.54297C23.1562 9.81641 23.3125 10.1289 23.2734 10.4805Z" fill="#3B82F6"/>
</svg>
