<svg width="26" height="21" viewBox="0 0 26 21" fill="none" xmlns="http://www.w3.org/2000/svg">
<g clip-path="url(#clip0_15_176)">
<path d="M11.4375 1.75C10.918 1.75 10.5 2.16797 10.5 2.6875C10.5 3.20703 10.918 3.625 11.4375 3.625H13.6914L14.332 4.80859L10.5 8L8.73047 6.23047C8.26172 5.76172 7.625 5.5 6.96094 5.5H3C2.30859 5.5 1.75 6.05859 1.75 6.75V8H5.5C8.95313 8 11.75 10.7969 11.75 14.25C11.75 14.6797 11.707 15.0977 11.625 15.5H14.375C14.293 15.0977 14.25 14.6797 14.25 14.25C14.25 12.2109 15.2266 10.3984 16.7383 9.25781L17.3398 10.375C16.2188 11.293 15.5 12.6875 15.5 14.25C15.5 17.0117 17.7383 19.25 20.5 19.25C23.2617 19.25 25.5 17.0117 25.5 14.25C25.5 11.4883 23.2617 9.25 20.5 9.25C19.9727 9.25 19.4648 9.33203 18.9883 9.48438L16.8359 5.5H19.25C19.9414 5.5 20.5 4.94141 20.5 4.25V3C20.5 2.30859 19.9414 1.75 19.25 1.75H18.4531C18.1602 1.75 17.8789 1.85156 17.6523 2.03906L15.8008 3.58203L15.2539 2.56641C14.9805 2.0625 14.4531 1.74609 13.8789 1.74609H11.4375V1.75ZM18.5742 12.6563L19.6758 14.6953C19.9219 15.1523 20.4922 15.3203 20.9453 15.0742C21.3984 14.8281 21.5703 14.2578 21.3242 13.8047L20.2227 11.7656C20.3125 11.7539 20.4062 11.75 20.5 11.75C21.8789 11.75 23 12.8711 23 14.25C23 15.6289 21.8789 16.75 20.5 16.75C19.1211 16.75 18 15.6289 18 14.25C18 13.6445 18.2148 13.0898 18.5742 12.6563ZM7.81641 15.1875C7.44531 16.1055 6.54687 16.75 5.5 16.75C4.12109 16.75 3 15.6289 3 14.25C3 12.8711 4.12109 11.75 5.5 11.75C6.55078 11.75 7.44922 12.3945 7.81641 13.3125H10.4102C9.97266 11 7.94141 9.25 5.5 9.25C2.73828 9.25 0.5 11.4883 0.5 14.25C0.5 17.0117 2.73828 19.25 5.5 19.25C7.94141 19.25 9.97266 17.5 10.4141 15.1875H7.81641ZM5.5 15.5C5.83152 15.5 6.14946 15.3683 6.38388 15.1339C6.6183 14.8995 6.75 14.5815 6.75 14.25C6.75 13.9185 6.6183 13.6005 6.38388 13.3661C6.14946 13.1317 5.83152 13 5.5 13C5.16848 13 4.85054 13.1317 4.61612 13.3661C4.3817 13.6005 4.25 13.9185 4.25 14.25C4.25 14.5815 4.3817 14.8995 4.61612 15.1339C4.85054 15.3683 5.16848 15.5 5.5 15.5Z" fill="#22C55E"/>
</g>
<defs>
<clipPath id="clip0_15_176">
<path d="M0.5 0.5H25.5V20.5H0.5V0.5Z" fill="white"/>
</clipPath>
</defs>
</svg>
