<svg width="20" height="21" viewBox="0 0 20 21" fill="none" xmlns="http://www.w3.org/2000/svg">
<path d="M19.1836 7.00781C19.3086 7.34766 19.2031 7.72656 18.9336 7.96875L17.2422 9.50781C17.2852 9.83203 17.3086 10.1641 17.3086 10.5C17.3086 10.8359 17.2852 11.168 17.2422 11.4922L18.9336 13.0312C19.2031 13.2734 19.3086 13.6523 19.1836 13.9922C19.0117 14.457 18.8047 14.9023 18.5664 15.332L18.3828 15.6484C18.125 16.0781 17.8359 16.4844 17.5195 16.8672C17.2891 17.1484 16.9063 17.2422 16.5625 17.1328L14.3867 16.4414C13.8633 16.8438 13.2852 17.1797 12.668 17.4336L12.1797 19.6641C12.1016 20.0195 11.8281 20.3008 11.4688 20.3594C10.9297 20.4492 10.375 20.4961 9.8086 20.4961C9.2422 20.4961 8.68751 20.4492 8.14845 20.3594C7.78907 20.3008 7.51563 20.0195 7.43751 19.6641L6.94923 17.4336C6.33204 17.1797 5.75392 16.8438 5.23048 16.4414L3.0586 17.1367C2.71485 17.2461 2.33204 17.1484 2.10157 16.8711C1.78517 16.4883 1.4961 16.082 1.23829 15.6523L1.0547 15.3359C0.816416 14.9062 0.609385 14.4609 0.43751 13.9961C0.31251 13.6563 0.417979 13.2773 0.68751 13.0352L2.37892 11.4961C2.33595 11.168 2.31251 10.8359 2.31251 10.5C2.31251 10.1641 2.33595 9.83203 2.37892 9.50781L0.68751 7.96875C0.417979 7.72656 0.31251 7.34766 0.43751 7.00781C0.609385 6.54297 0.816416 6.09766 1.0547 5.66797L1.23829 5.35156C1.4961 4.92187 1.78517 4.51563 2.10157 4.13281C2.33204 3.85156 2.71485 3.75781 3.0586 3.86719L5.23439 4.55859C5.75782 4.15625 6.33595 3.82031 6.95314 3.56641L7.44142 1.33594C7.51954 0.980469 7.79298 0.699219 8.15235 0.640625C8.69142 0.546875 9.2461 0.5 9.81251 0.5C10.3789 0.5 10.9336 0.546875 11.4727 0.636719C11.832 0.695312 12.1055 0.976562 12.1836 1.33203L12.6719 3.5625C13.2891 3.81641 13.8672 4.15234 14.3906 4.55469L16.5664 3.86328C16.9102 3.75391 17.293 3.85156 17.5234 4.12891C17.8399 4.51172 18.1289 4.91797 18.3867 5.34766L18.5703 5.66406C18.8086 6.09375 19.0156 6.53906 19.1875 7.00391L19.1836 7.00781ZM9.81251 13.625C10.6413 13.625 11.4362 13.2958 12.0222 12.7097C12.6083 12.1237 12.9375 11.3288 12.9375 10.5C12.9375 9.6712 12.6083 8.87634 12.0222 8.29029C11.4362 7.70424 10.6413 7.375 9.81251 7.375C8.98371 7.375 8.18885 7.70424 7.6028 8.29029C7.01675 8.87634 6.68751 9.6712 6.68751 10.5C6.68751 11.3288 7.01675 12.1237 7.6028 12.7097C8.18885 13.2958 8.98371 13.625 9.81251 13.625Z" fill="#9CA3AF"/>
</svg>
