<svg width="26" height="21" viewBox="0 0 26 21" fill="none" xmlns="http://www.w3.org/2000/svg">
<g clip-path="url(#clip0_15_179)">
<path d="M2.375 0.5C1.33984 0.5 0.5 1.33984 0.5 2.375V14.875C0.5 15.9102 1.33984 16.75 2.375 16.75H3C3 18.8203 4.67969 20.5 6.75 20.5C8.82031 20.5 10.5 18.8203 10.5 16.75H15.5C15.5 18.8203 17.1797 20.5 19.25 20.5C21.3203 20.5 23 18.8203 23 16.75H24.25C24.9414 16.75 25.5 16.1914 25.5 15.5C25.5 14.8086 24.9414 14.25 24.25 14.25V11.75V10.5V9.76953C24.25 9.10547 23.9883 8.46875 23.5195 8L20.5 4.98047C20.0312 4.51172 19.3945 4.25 18.7305 4.25H16.75V2.375C16.75 1.33984 15.9102 0.5 14.875 0.5H2.375ZM16.75 6.75H18.7305L21.75 9.76953V10.5H16.75V6.75ZM4.875 16.75C4.875 16.2527 5.07254 15.7758 5.42417 15.4242C5.77581 15.0725 6.25272 14.875 6.75 14.875C7.24728 14.875 7.72419 15.0725 8.07583 15.4242C8.42746 15.7758 8.625 16.2527 8.625 16.75C8.625 17.2473 8.42746 17.7242 8.07583 18.0758C7.72419 18.4275 7.24728 18.625 6.75 18.625C6.25272 18.625 5.77581 18.4275 5.42417 18.0758C5.07254 17.7242 4.875 17.2473 4.875 16.75ZM19.25 14.875C19.7473 14.875 20.2242 15.0725 20.5758 15.4242C20.9275 15.7758 21.125 16.2527 21.125 16.75C21.125 17.2473 20.9275 17.7242 20.5758 18.0758C20.2242 18.4275 19.7473 18.625 19.25 18.625C18.7527 18.625 18.2758 18.4275 17.9242 18.0758C17.5725 17.7242 17.375 17.2473 17.375 16.75C17.375 16.2527 17.5725 15.7758 17.9242 15.4242C18.2758 15.0725 18.7527 14.875 19.25 14.875Z" fill="#A855F7"/>
</g>
<defs>
<clipPath id="clip0_15_179">
<path d="M0.5 0.5H25.5V20.5H0.5V0.5Z" fill="white"/>
</clipPath>
</defs>
</svg>
