<svg width="16" height="16" viewBox="0 0 16 16" fill="none" xmlns="http://www.w3.org/2000/svg">
<g clip-path="url(#clip0_27_700)">
<g clip-path="url(#clip1_27_700)">
<path d="M15.8281 8.18125C15.8281 12.6031 12.8 15.75 8.32812 15.75C4.04063 15.75 0.578125 12.2875 0.578125 8C0.578125 3.7125 4.04063 0.25 8.32812 0.25C10.4156 0.25 12.1719 1.01562 13.525 2.27813L11.4156 4.30625C8.65625 1.64375 3.525 3.64375 3.525 8C3.525 10.7031 5.68438 12.8938 8.32812 12.8938C11.3969 12.8938 12.5469 10.6938 12.7281 9.55313H8.32812V6.8875H15.7063C15.7781 7.28437 15.8281 7.66562 15.8281 8.18125Z" fill="#EF4444"/>
</g>
</g>
<defs>
<clipPath id="clip0_27_700">
<rect width="15.25" height="16" fill="white" transform="translate(0.578125)"/>
</clipPath>
<clipPath id="clip1_27_700">
<path d="M0.578125 0H15.8281V16H0.578125V0Z" fill="white"/>
</clipPath>
</defs>
</svg>
